<svg xmlns="http://www.w3.org/2000/svg" width="45" height="40" viewBox="0 0 45 40">
    <g id="Group_1313" data-name="Group 1313" transform="translate(-2.052 -6.038)">
        <g id="SPEEDRUNNER" style="isolation: isolate">
            <g id="Group_1314" data-name="Group 1314" style="isolation: isolate">
                <path id="Path_1440" data-name="Path 1440" d="M11.126,6.038c5.884,0,8.909,3.519,8.909,9.678v1.21h-5.72V15.332c0-2.75-1.1-3.8-3.024-3.8s-3.025,1.045-3.025,3.8c0,7.919,11.823,9.4,11.823,20.4,0,6.158-3.079,9.678-9.018,9.678s-9.019-3.52-9.019-9.678V33.369H7.771v2.75c0,2.749,1.21,3.739,3.135,3.739s3.135-.99,3.135-3.739c0-7.919-11.824-9.4-11.824-20.4C2.217,9.557,5.242,6.038,11.126,6.038Z" fill="#067a7d"/>
                <path id="Path_1445" data-name="Path 1445" d="M188.883,44.972c-.33-.99-.55-1.594-.55-4.729V34.194c0-3.575-1.209-4.9-3.959-4.9h-2.09V44.972h-6.049V6.477h9.129c6.269,0,8.964,2.915,8.964,8.855v3.024c0,3.959-1.266,6.544-3.96,7.809,3.025,1.264,4.015,4.179,4.015,8.194V40.3a11.316,11.316,0,0,0,.66,4.675Zm-6.6-33V23.8h2.365c2.254,0,3.629-.99,3.629-4.069v-3.8c0-2.75-.935-3.96-3.079-3.96Z" fill="#067a7d" style="transform: translateX(-150px);"/>
            </g>
        </g>
    </g>
</svg>