<svg xmlns="http://www.w3.org/2000/svg" width="372.948" height="81.962" viewBox="0 0 372.948 81.962">
  <g id="Group_1313" data-name="Group 1313" transform="translate(-2.052 -6.038)">
    <g id="SPEEDRUNNER" style="isolation: isolate">
      <g id="Group_1314" data-name="Group 1314" style="isolation: isolate">
        <path id="Path_1440" data-name="Path 1440" d="M11.126,6.038c5.884,0,8.909,3.519,8.909,9.678v1.21h-5.72V15.332c0-2.75-1.1-3.8-3.024-3.8s-3.025,1.045-3.025,3.8c0,7.919,11.823,9.4,11.823,20.4,0,6.158-3.079,9.678-9.018,9.678s-9.019-3.52-9.019-9.678V33.369H7.771v2.75c0,2.749,1.21,3.739,3.135,3.739s3.135-.99,3.135-3.739c0-7.919-11.824-9.4-11.824-20.4C2.217,9.557,5.242,6.038,11.126,6.038Z" fill="#ffffff"/>
        <path id="Path_1441" data-name="Path 1441" d="M55.234,15.991V21c0,6.159-2.969,9.513-9.019,9.513H43.356V44.972H37.307V6.477h8.908C52.265,6.477,55.234,9.832,55.234,15.991ZM43.356,11.976V25.01h2.859c1.925,0,2.97-.88,2.97-3.63V15.606c0-2.749-1.045-3.63-2.97-3.63Z" fill="#ffffff"/>
        <path id="Path_1442" data-name="Path 1442" d="M78.115,22.7h8.3v5.5h-8.3V39.473H88.563v5.5h-16.5V6.477h16.5v5.5H78.115Z" fill="#ffffff"/>
        <path id="Path_1443" data-name="Path 1443" d="M112.105,22.7h8.3v5.5h-8.3V39.473h10.449v5.5h-16.5V6.477h16.5v5.5H112.105Z" fill="#ffffff"/>
        <path id="Path_1444" data-name="Path 1444" d="M140.045,6.477h9.569c6.049,0,9.019,3.355,9.019,9.514V35.459c0,6.159-2.97,9.513-9.019,9.513h-9.569Zm6.05,5.5v27.5H149.5c1.925,0,3.08-.99,3.08-3.739V15.716c0-2.75-1.155-3.74-3.08-3.74Z" fill="#ffffff"/>
        <path id="Path_1445" data-name="Path 1445" d="M188.883,44.972c-.33-.99-.55-1.594-.55-4.729V34.194c0-3.575-1.209-4.9-3.959-4.9h-2.09V44.972h-6.049V6.477h9.129c6.269,0,8.964,2.915,8.964,8.855v3.024c0,3.959-1.266,6.544-3.96,7.809,3.025,1.264,4.015,4.179,4.015,8.194V40.3a11.316,11.316,0,0,0,.66,4.675Zm-6.6-33V23.8h2.365c2.254,0,3.629-.99,3.629-4.069v-3.8c0-2.75-.935-3.96-3.079-3.96Z" fill="#ffffff"/>
        <path id="Path_1446" data-name="Path 1446" d="M217.869,6.477v29.7c0,2.75,1.209,3.74,3.134,3.74s3.135-.99,3.135-3.74V6.477h5.719V35.789c0,6.159-3.08,9.678-9.019,9.678s-9.019-3.519-9.019-9.678V6.477Z" fill="#ffffff"/>
        <path id="Path_1447" data-name="Path 1447" d="M253.123,17.091V44.972h-5.444V6.477h7.589l6.214,23.042V6.477h5.389V44.972h-6.214Z" fill="#ffffff"/>
        <path id="Path_1448" data-name="Path 1448" d="M290.357,17.091V44.972h-5.444V6.477H292.5l6.215,23.042V6.477h5.388V44.972h-6.213Z" fill="#ffffff"/>
        <path id="Path_1449" data-name="Path 1449" d="M328.252,22.7h8.3v5.5h-8.3V39.473H338.7v5.5H322.2V6.477h16.5v5.5H328.252Z" fill="#ffffff"/>
        <path id="Path_1450" data-name="Path 1450" d="M368.841,44.972c-.329-.99-.55-1.594-.55-4.729V34.194c0-3.575-1.21-4.9-3.959-4.9h-2.09V44.972h-6.049V6.477h9.128c6.27,0,8.964,2.915,8.964,8.855v3.024c0,3.959-1.264,6.544-3.959,7.809,3.025,1.264,4.015,4.179,4.015,8.194V40.3A11.35,11.35,0,0,0,375,44.972Zm-6.6-33V23.8h2.364c2.255,0,3.63-.99,3.63-4.069v-3.8c0-2.75-.934-3.96-3.08-3.96Z" fill="#ffffff"/>
      </g>
    </g>
    <path id="Subtraction_14" data-name="Subtraction 14" d="M375,88H309V54h66V88ZM358.293,74.82h0v1.2a5.667,5.667,0,0,0,1.231,3.914,4.638,4.638,0,0,0,3.627,1.369,4.789,4.789,0,0,0,3.7-1.385,5.635,5.635,0,0,0,1.277-3.955,7.31,7.31,0,0,0-.78-3.453,12.369,12.369,0,0,0-2.852-3.268,11.771,11.771,0,0,1-2.232-2.4,3.98,3.98,0,0,1-.616-2.129c0-1.332.554-2.01,1.647-2.01a1.529,1.529,0,0,1,1.231.492,2.4,2.4,0,0,1,.421,1.575v1.082h3.119v-.872a5.732,5.732,0,0,0-1.216-3.914,4.568,4.568,0,0,0-3.581-1.365,4.768,4.768,0,0,0-3.663,1.365,5.507,5.507,0,0,0-1.257,3.858,6.668,6.668,0,0,0,.8,3.283,13.59,13.59,0,0,0,2.852,3.258,11.263,11.263,0,0,1,2.221,2.412,4.48,4.48,0,0,1,.6,2.322,2.424,2.424,0,0,1-.436,1.608,1.633,1.633,0,0,1-1.277.5c-1.134,0-1.708-.687-1.708-2.041V74.825ZM320.883,59.7a4.7,4.7,0,0,0-3.617,1.35,5.448,5.448,0,0,0-1.242,3.81V76.145a5.428,5.428,0,0,0,1.242,3.806,5.5,5.5,0,0,0,7.229,0,5.425,5.425,0,0,0,1.247-3.806V73.174h-3.119v3.211c0,1.271-.556,1.918-1.652,1.918s-1.647-.647-1.647-1.918V64.652c0-1.293.554-1.949,1.647-1.949s1.652.656,1.652,1.949v2.432h3.119V64.861a5.446,5.446,0,0,0-1.247-3.81,4.677,4.677,0,0,0-3.614-1.351Zm24.841,5.4h.056V81h3.12V60h-4.715l-2.1,15.027h-.062L339.923,60h-4.71V81h2.878V65.1h.062l2.4,15.9h2.76l2.4-15.9Z" fill="#ffffff"/>
    <path id="Path_1429" data-name="Path 1429" d="M289.479,81.823h3.482L299.3,70.877l-6.334-11.223h-3.482l5.758,11.223Z" fill="#ffffff"/>
  </g>
</svg>
